<?xml version="1.0" standalone="no"?>
<!DOCTYPE svg PUBLIC "-//W3C//DTD SVG 20010904//EN"
 "http://www.w3.org/TR/2001/REC-SVG-20010904/DTD/svg10.dtd">
<svg version="1.0" xmlns="http://www.w3.org/2000/svg"
 width="1401.000000pt" height="786.000000pt" viewBox="0 0 1401.000000 786.000000"
 preserveAspectRatio="xMidYMid meet">

<g transform="translate(0.000000,786.000000) scale(0.100000,-0.100000)"
fill="#000000" stroke="none">
<path d="M2755 7773 c-94 -50 -2662 -1507 -2669 -1514 -6 -5 -23 -569 -42
-1361 -18 -744 -34 -1426 -36 -1514 l-4 -162 30 -9 c25 -8 1562 -874 2527
-1423 127 -73 216 -118 234 -118 18 0 339 176 934 511 498 280 911 515 917
521 8 8 15 152 22 466 6 250 9 456 7 458 -5 5 -99 -47 -1159 -646 -385 -216
-704 -396 -710 -398 -7 -3 -183 92 -391 211 -209 118 -653 369 -987 557 l-607
343 -1 125 c0 69 5 238 10 375 5 138 14 511 20 830 5 319 13 626 16 681 l6
102 836 473 c461 261 889 504 952 540 113 66 115 67 144 52 17 -9 479 -269
1029 -579 549 -311 1003 -565 1009 -567 12 -2 400 682 393 693 -3 5 -29 22
-58 38 -28 15 -571 322 -1205 680 -635 359 -1161 652 -1170 652 -10 -1 -30 -8
-47 -17z"/>
<path d="M5813 3649 c-114 -56 -113 -273 1 -328 40 -20 60 -21 314 -21 322 0
312 3 312 -103 0 -53 -4 -67 -23 -85 -23 -21 -30 -22 -293 -22 -270 0 -271 0
-292 23 -12 13 -22 29 -22 35 0 7 -16 12 -40 12 -46 0 -48 -7 -19 -66 15 -31
32 -48 63 -63 39 -20 60 -21 311 -21 251 0 272 1 311 21 57 27 84 82 84 168 0
81 -26 133 -80 161 -36 19 -58 20 -313 20 -273 0 -274 0 -295 23 -32 34 -32
134 1 165 23 21 30 22 293 22 270 0 271 0 292 -23 12 -13 22 -29 22 -35 0 -7
16 -12 40 -12 47 0 50 11 20 69 -13 27 -33 46 -63 60 -41 20 -59 21 -313 21
-252 0 -272 -1 -311 -21z"/>
<path d="M6690 3340 l0 -330 35 0 35 0 0 246 c0 198 2 244 13 236 7 -6 89
-117 182 -246 125 -174 175 -236 190 -236 15 0 68 67 195 244 l175 243 3 -243
2 -244 40 0 40 0 0 330 0 330 -28 0 c-25 0 -47 -26 -214 -257 -103 -142 -193
-266 -200 -277 -13 -17 -31 5 -214 258 -177 246 -202 276 -226 276 l-28 0 0
-330z"/>
<path d="M8074 3547 c-45 -67 -145 -215 -222 -329 l-140 -208 48 0 48 0 48 75
49 75 270 0 271 0 52 -75 c52 -75 52 -75 98 -75 l46 0 -19 29 c-10 15 -110
164 -222 330 -159 233 -209 301 -225 301 -16 0 -43 -33 -102 -123z m208 -142
c52 -77 98 -146 102 -152 6 -10 -39 -13 -208 -13 l-216 0 107 159 c60 87 111
156 114 152 3 -3 49 -69 101 -146z"/>
<path d="M8750 3340 l0 -330 40 0 40 0 0 125 0 125 293 0 c249 0 296 -2 315
-16 20 -14 22 -23 22 -125 l0 -109 40 0 40 0 0 113 c0 94 -3 117 -20 145 -20
32 -20 32 0 65 16 26 20 50 20 133 0 88 -3 105 -22 134 -48 69 -54 70 -430 70
l-338 0 0 -330z m688 234 c20 -14 22 -23 22 -109 0 -133 22 -125 -337 -125
l-293 0 0 125 0 125 293 0 c249 0 296 -2 315 -16z"/>
<path d="M9630 3630 l0 -40 160 0 160 0 0 -290 0 -290 40 0 40 0 0 290 0 290
165 0 165 0 0 40 0 40 -365 0 -365 0 0 -40z"/>
<path d="M10620 3630 l0 -40 165 0 165 0 0 -290 0 -290 40 0 40 0 0 290 0 290
160 0 160 0 0 40 0 40 -365 0 -365 0 0 -40z"/>
<path d="M11460 3340 l0 -330 375 0 375 0 0 40 0 40 -335 0 -335 0 0 105 0
105 295 0 295 0 0 40 0 40 -295 0 -295 0 0 105 0 105 335 0 335 0 0 40 0 40
-375 0 -375 0 0 -330z"/>
<path d="M12433 3649 c-114 -56 -113 -273 1 -328 40 -20 60 -21 314 -21 322 0
312 3 312 -103 0 -53 -4 -67 -23 -85 -23 -21 -30 -22 -293 -22 -270 0 -271 0
-292 23 -12 13 -22 29 -22 35 0 7 -16 12 -40 12 -46 0 -48 -7 -19 -66 15 -31
32 -48 63 -63 39 -20 60 -21 311 -21 251 0 272 1 311 21 57 27 84 82 84 168 0
81 -26 133 -80 161 -36 19 -58 20 -313 20 -273 0 -274 0 -295 23 -32 34 -32
134 1 165 23 21 30 22 293 22 270 0 271 0 292 -23 12 -13 22 -29 22 -35 0 -7
16 -12 40 -12 47 0 50 11 20 69 -13 27 -33 46 -63 60 -41 20 -59 21 -313 21
-252 0 -272 -1 -311 -21z"/>
<path d="M13230 3630 l0 -40 160 0 160 0 0 -290 0 -290 40 0 40 0 0 290 0 290
160 0 160 0 0 40 0 40 -360 0 -360 0 0 -40z"/>
</g>
</svg>
